<svg width="69" height="22" fill="none" xmlns="http://www.w3.org/2000/svg"><path d="M7.32 14.28c0 1.536-.304 2.848-.912 3.936a6.166 6.166 0 0 1-2.544 2.496c-1.072.592-2.32.912-3.744.96v-3.384c1.088-.064 1.976-.4 2.664-1.008.688-.608 1.032-1.632 1.032-3.072V.336H7.32V14.28Zm9.177 4.008c-1.28 0-2.368-.24-3.264-.72a4.935 4.935 0 0 1-2.016-1.992c-.464-.848-.696-1.824-.696-2.928 0-1.056.272-2.008.816-2.856a5.889 5.889 0 0 1 2.184-2.016c.912-.512 1.928-.768 3.048-.768 1.504 0 2.736.44 3.696 1.32.976.864 1.608 2.12 1.896 3.768l-8.16 2.592-.744-1.824 5.904-1.992-.696.312a2.38 2.38 0 0 0-.696-1.08c-.32-.32-.808-.48-1.464-.48-.496 0-.936.12-1.32.36a2.266 2.266 0 0 0-.864.984c-.192.416-.288.912-.288 1.488 0 .656.12 1.208.36 1.656.24.432.568.76.984.984.416.224.88.336 1.392.336.368 0 .72-.064 1.056-.192a5.586 5.586 0 0 0 1.032-.504l1.488 2.496c-.56.32-1.168.576-1.824.768a6.351 6.351 0 0 1-1.824.288Zm11.514-.072a6.406 6.406 0 0 1-2.424-.456 5.323 5.323 0 0 1-1.872-1.272l1.392-1.848c.512.464.984.8 1.416 1.008.448.192.848.288 1.2.288.272 0 .512-.024.72-.072.224-.064.4-.152.528-.264a.651.651 0 0 0 .192-.48.756.756 0 0 0-.336-.648 2.42 2.42 0 0 0-.816-.384 29.88 29.88 0 0 0-1.08-.336c-.96-.304-1.656-.744-2.088-1.32a3.274 3.274 0 0 1-.624-1.92c0-.528.136-1.056.408-1.584.288-.544.736-.992 1.344-1.344.624-.368 1.424-.552 2.4-.552.88 0 1.624.088 2.232.264a5.475 5.475 0 0 1 1.728.864l-1.272 1.968a4.362 4.362 0 0 0-1.032-.6c-.368-.176-.712-.272-1.032-.288a1.79 1.79 0 0 0-.744.096c-.192.08-.344.184-.456.312a.611.611 0 0 0-.168.408.79.79 0 0 0 .336.72c.256.176.576.312.96.408.384.096.76.208 1.128.336.512.16.952.376 1.32.648.368.272.648.6.84.984.208.368.312.816.312 1.344 0 .64-.168 1.248-.504 1.824-.32.56-.816 1.016-1.488 1.368-.656.352-1.496.528-2.52.528Zm10.734 0a6.406 6.406 0 0 1-2.424-.456 5.323 5.323 0 0 1-1.872-1.272l1.392-1.848c.512.464.984.8 1.416 1.008.448.192.848.288 1.2.288.272 0 .512-.024.72-.072.224-.064.4-.152.528-.264a.651.651 0 0 0 .192-.48.756.756 0 0 0-.336-.648 2.42 2.42 0 0 0-.816-.384 29.88 29.88 0 0 0-1.08-.336c-.96-.304-1.656-.744-2.088-1.32a3.274 3.274 0 0 1-.624-1.92c0-.528.136-1.056.408-1.584.288-.544.736-.992 1.344-1.344.624-.368 1.424-.552 2.4-.552.88 0 1.624.088 2.232.264a5.475 5.475 0 0 1 1.728.864l-1.272 1.968a4.362 4.362 0 0 0-1.032-.6c-.368-.176-.712-.272-1.032-.288a1.79 1.79 0 0 0-.744.096c-.192.08-.344.184-.456.312a.611.611 0 0 0-.168.408.79.79 0 0 0 .336.72c.256.176.576.312.96.408.384.096.76.208 1.128.336.512.16.952.376 1.32.648.368.272.648.6.84.984.208.368.312.816.312 1.344 0 .64-.168 1.248-.504 1.824-.32.56-.816 1.016-1.488 1.368-.656.352-1.496.528-2.52.528Zm7.327-10.704h3.36V18h-3.36V7.512ZM46 3.792c0-.496.192-.904.576-1.224.4-.32.824-.48 1.272-.48.448 0 .856.16 1.224.48.384.32.576.728.576 1.224s-.192.904-.576 1.224a1.876 1.876 0 0 1-1.224.456c-.448 0-.872-.152-1.272-.456A1.523 1.523 0 0 1 46 3.792Zm12.052 14.496c-1.28 0-2.368-.24-3.264-.72a4.935 4.935 0 0 1-2.016-1.992c-.464-.848-.696-1.824-.696-2.928 0-1.056.272-2.008.816-2.856a5.889 5.889 0 0 1 2.184-2.016c.912-.512 1.928-.768 3.048-.768 1.504 0 2.736.44 3.696 1.32.976.864 1.608 2.12 1.896 3.768l-8.16 2.592-.744-1.824 5.904-1.992-.696.312a2.38 2.38 0 0 0-.696-1.08c-.32-.32-.808-.48-1.464-.48-.496 0-.936.12-1.32.36a2.266 2.266 0 0 0-.864.984c-.192.416-.288.912-.288 1.488 0 .656.12 1.208.36 1.656.24.432.568.76.984.984.416.224.88.336 1.392.336.368 0 .72-.064 1.056-.192a5.586 5.586 0 0 0 1.032-.504l1.488 2.496c-.56.32-1.168.576-1.824.768a6.351 6.351 0 0 1-1.824.288Zm6.738-2.016c0-.496.176-.912.528-1.248.368-.336.768-.504 1.2-.504.4 0 .776.168 1.128.504.368.336.552.752.552 1.248 0 .528-.184.952-.552 1.272-.352.304-.728.456-1.128.456-.432 0-.832-.152-1.2-.456-.352-.32-.528-.744-.528-1.272Z" fill="#EEE"/></svg>